# xmcd CD database file
#
# Track frame offsets:
#	150
#	14717
#	31902
#	55265
#	72232
#	93395
#	111582
#	128017
#	144920
#	168317
#
# Disc length: 2515 seconds
#
# Revision: 0
# Processed by: cddbd v1.5.1PL0 Copyright (c) Steve Scherf et al.
# Submitted via: CDex 1.51
#
DISCID=8809d10a
DTITLE=松山千春 - 冬がやってきた
DYEAR=2004
DGENRE=JPop
TTITLE0=陽は昇る
TTITLE1=冬がやってきた
TTITLE2=山の向こう
TTITLE3=特別な夜
TTITLE4=いつだって
TTITLE5=自由
TTITLE6=human
TTITLE7=悲しくなったら
TTITLE8=お願い
TTITLE9=北風の子守唄
EXTD=YEAR: 2004
EXTT0=
EXTT1=
EXTT2=
EXTT3=
EXTT4=
EXTT5=
EXTT6=
EXTT7=
EXTT8=
EXTT9=
PLAYORDER=
